<?xml version="1.0" encoding="utf-8"?>
<!-- Generator: Adobe Illustrator 22.0.0, SVG Export Plug-In . SVG Version: 6.00 Build 0)  -->
<svg version="1.1" id="Layer_1" xmlns="http://www.w3.org/2000/svg" xmlns:xlink="http://www.w3.org/1999/xlink" x="0px" y="0px"
	 viewBox="0 0 810 810" style="enable-background:new 0 0 810 810;" xml:space="preserve">
<style type="text/css">
	.st0{fill:#1B1B1E;}
	.st1{fill:#373F51;}
	.st2{fill:none;}
	.st3{fill:#FFFFFF;}
</style>
<g>
	<path class="st0" d="M559.1,502.6c0,35.4-39.2,67.5-78.3,90.8c-39.2,23.2-78.3,37.6-78.3,37.6s-39.2-14.4-78.3-37.6
		c-39.2-23.2-78.3-55.3-78.3-90.8V396.4V290.2l156.6-33.8l156.6,33.8v106.2V502.6z"/>
	<g>
		<g>
			<g>
				<g>
					<path class="st1" d="M312.3,634.5c1.5,1.7,2.8,3.5,4.1,5.3c1.2,1.8,2.4,3.5,3.5,5.3c2.2,3.6,3.9,7.2,5.4,10.2
						c1.4,3,2.5,5.7,3.2,7.6c0.7,1.9,1.1,3.1,1.1,3.1s-1.2-0.2-3.1-0.6c-1-0.2-2.2-0.5-3.5-0.9c-1.3-0.4-2.8-1-4.4-1.6
						c-1.6-0.6-3.3-1.4-5.1-2.2c-0.9-0.4-1.8-0.9-2.7-1.4c-0.9-0.5-1.8-1.1-2.7-1.7c-3.6-2.4-7.2-5.2-10.2-9
						c-1.5-1.8-2.9-3.7-4.1-5.6c-0.6-0.9-1.1-1.9-1.6-2.9c-0.5-1-1-2-1.4-2.9c-1.7-3.9-2.8-7.6-3.5-10.8c-0.7-3.3-0.9-6.1-1.1-8.1
						c-0.1-2-0.1-3.1-0.1-3.1s1,0.4,2.5,1.1c0.8,0.4,1.7,0.9,2.8,1.5c1.1,0.6,2.3,1.2,3.6,2c2.6,1.5,5.4,3.6,8.4,5.9
						c1.5,1.2,3,2.5,4.5,4l1.1,1.1l1.1,1.1C310.8,632.8,311.6,633.6,312.3,634.5z"/>
					<path class="st1" d="M295.3,684.5c2.6-0.3,5.1-0.8,7.5-1.4c2.4-0.6,4.6-1.5,6.7-2.3c4.2-1.8,7.8-3.7,10.7-5.7
						c2.9-2,5.1-3.9,6.6-5.3c1.5-1.4,2.3-2.3,2.3-2.3s-1.1-0.4-3.1-0.9c-1-0.2-2.2-0.5-3.6-0.8c-1.4-0.3-2.9-0.7-4.6-1
						c-1.7-0.3-3.5-0.6-5.5-0.8c-1-0.1-2-0.2-3.1-0.3c-1-0.1-2.1-0.2-3.2-0.3c-4.4-0.3-9.2-0.2-14.1,0.2c-2.5,0.2-4.9,0.6-7.3,1.1
						c-1.2,0.2-2.3,0.5-3.5,0.7c-1.1,0.2-2.2,0.5-3.3,0.8c-4.3,1.1-8.3,2.5-11.7,3.9c-3.3,1.3-6.1,2.5-8,3.4c-1.9,0.9-3,1.5-3,1.5
						s1.1,0.7,3.2,1.8c1,0.5,2.3,1.2,3.7,1.9c1.5,0.7,3.1,1.3,5,2c3.7,1.3,8,2.7,12.8,3.3c2.4,0.4,4.9,0.6,7.4,0.8
						c0.6,0,1.3,0.1,1.9,0.1c0.7,0,1.3,0,2-0.1C292.7,684.7,294,684.6,295.3,684.5z"/>
				</g>
				<g>
					<path class="st1" d="M268.5,613.5c1,2.1,2,4,2.8,6c0.8,2,1.6,4.1,2.2,6.1c0.3,1,0.6,2,0.9,3c0.3,1,0.6,1.9,0.8,2.8
						c0.5,1.9,0.9,3.6,1.3,5.3c0.7,3.3,1.2,6.2,1.4,8.3c0.1,1,0.2,1.8,0.3,2.4c0.1,0.5,0.1,0.8,0.1,0.8s-0.3-0.1-0.8-0.3
						c-0.5-0.2-1.2-0.6-2.1-1c-1.8-0.9-4.4-2.3-7.2-4.2c-1.5-0.9-2.9-2.1-4.4-3.4c-1.5-1.3-3-2.7-4.6-4.2c-0.4-0.4-0.7-0.8-1.1-1.2
						c-0.4-0.4-0.7-0.8-1.1-1.3c-0.7-0.9-1.4-1.8-2.1-2.7c-1.4-1.9-2.6-3.8-3.8-5.9c-2.2-4.3-3.6-8.7-4.4-12.8
						c-0.8-4.1-1-8.1-1-11.4c0-3.3,0.3-6.1,0.6-8c0.3-2,0.6-3.1,0.6-3.1s0.2,0.2,0.6,0.4c0.4,0.3,0.9,0.7,1.6,1.3
						c1.4,1.1,3.3,2.7,5.4,4.8C259,599.6,264.3,605.5,268.5,613.5z"/>
					<path class="st1" d="M241,658.5c2.6,0.4,5.2,0.4,7.7,0.3c2.5-0.1,4.8-0.3,7-0.7c1.1-0.2,2.2-0.4,3.2-0.6
						c1.1-0.3,2.1-0.5,3.1-0.8c2-0.6,3.8-1.2,5.4-1.8c3.3-1.3,5.8-2.6,7.6-3.6c0.9-0.5,1.6-0.9,2-1.2c0.5-0.3,0.7-0.5,0.7-0.5
						s-1-0.6-2.8-1.6c-1.8-1-4.4-2.2-7.6-3.5c-1.6-0.6-3.3-1.4-5.2-2.1c-1.9-0.7-3.9-1.4-6-1.9c-0.5-0.1-1.1-0.3-1.6-0.4
						c-0.5-0.2-1.1-0.3-1.6-0.5c-1.1-0.3-2.2-0.6-3.4-0.8c-2.3-0.5-4.7-0.9-7.2-1.2c-4.9-0.7-9.7-0.8-14.3-0.6
						c-4.5,0.2-8.6,0.5-12.2,1.1c-3.5,0.5-6.6,1.2-8.6,1.6c-2,0.5-3.2,0.8-3.2,0.8s0.2,0.2,0.7,0.7c0.5,0.4,1.1,1.1,2,1.8
						c1.8,1.5,4.4,3.5,7.7,5.6c0.8,0.5,1.7,1.1,2.6,1.6c0.9,0.5,1.9,1,2.9,1.5c2,1,4.1,2,6.4,2.9c1.1,0.5,2.3,0.9,3.4,1.3
						c1.2,0.4,2.4,0.7,3.7,1C235.9,657.7,238.4,658.2,241,658.5z"/>
				</g>
				<g>
					<path class="st1" d="M230.4,583.3c0.6,2.2,1.1,4.3,1.4,6.5c0.2,1.1,0.3,2.2,0.5,3.3c0.1,1.1,0.3,2.1,0.4,3.1
						c0.4,4.1,0.5,8.1,0.5,11.6c0,3.5-0.2,6.3-0.3,8.3c-0.2,2-0.3,3.2-0.3,3.2s-1-0.6-2.6-1.9c-1.6-1.2-3.8-3.2-6.1-5.7
						c-1.2-1.3-2.4-2.7-3.6-4.2c-1.2-1.6-2.4-3.3-3.5-5.2c-1.1-1.9-2.2-3.8-3.1-5.9c-0.9-2.1-1.7-4.4-2.3-6.7
						c-0.6-2.3-1.1-4.6-1.3-6.8c-0.2-2.3-0.3-4.5-0.2-6.6c0.1-2.1,0.2-4.1,0.5-6c0.2-1.9,0.6-3.7,1-5.3c0.8-3.3,1.7-5.9,2.4-7.7
						c0.7-1.8,1.2-2.8,1.2-2.8s0.7,0.7,1.8,2.1c0.6,0.7,1.2,1.5,1.9,2.5c0.7,1,1.4,2.2,2.3,3.4c0.8,1.2,1.7,2.6,2.6,4.1
						c0.4,0.8,0.8,1.5,1.3,2.4c0.2,0.4,0.4,0.8,0.6,1.3c0.2,0.4,0.4,0.8,0.7,1.3c0.9,1.7,1.7,3.6,2.4,5.5c0.4,1,0.7,2,1,3.1
						C229.7,581.2,230.1,582.2,230.4,583.3z"/>
					<path class="st1" d="M193.8,621.1c2.5,0.9,5,1.5,7.4,2c1.2,0.2,2.4,0.4,3.5,0.6c1.2,0.1,2.3,0.2,3.5,0.3
						c4.5,0.2,8.6-0.1,12.1-0.5c3.4-0.5,6.3-1.3,8.3-1.9c2-0.6,3-1.1,3-1.1s-0.9-0.8-2.4-2.1c-1.6-1.3-3.8-3.1-6.6-5.2
						c-1.4-1-3-2.1-4.7-3.1c-1.7-1.1-3.4-2.2-5.3-3.3c-1.9-1.1-4-2.1-6.1-3.1c-2.1-1-4.3-2-6.7-2.9c-2.3-0.9-4.8-1.5-7-2.2
						c-2.3-0.6-4.5-1.2-6.8-1.6c-2.2-0.4-4.4-0.7-6.4-1c-2.1-0.2-3.9-0.5-5.7-0.6c-3.6-0.3-6.6-0.4-8.7-0.3c-2.1,0-3.3,0.1-3.3,0.1
						s0.7,1.1,2.1,3c0.7,0.9,1.6,2,2.6,3.3c1,1.2,2.2,2.6,3.6,4c1.4,1.4,3,2.8,4.6,4.3c0.8,0.7,1.7,1.5,2.6,2.2
						c0.5,0.4,0.9,0.7,1.4,1.1c0.5,0.3,1,0.7,1.5,1c2,1.4,4.2,2.7,6.4,3.9c1.1,0.6,2.3,1.2,3.5,1.7
						C191.3,620.2,192.6,620.7,193.8,621.1z"/>
				</g>
				<g>
					<path class="st1" d="M199.7,545.4c0,1.1,0.1,2.3,0,3.4c0,1.1-0.1,2.2-0.1,3.3c-0.1,2.2-0.3,4.3-0.5,6.4c-0.3,2.1-0.6,4.1-0.9,6
						c-0.3,1.9-0.7,3.7-1.1,5.3c-0.7,3.3-1.5,6.1-2.2,8.1c-0.6,2-1,3.1-1,3.1s-0.8-0.9-2.1-2.4c-0.6-0.8-1.4-1.8-2.2-2.9
						c-0.8-1.2-1.8-2.4-2.6-4c-1.7-3-3.5-6.6-4.9-10.7c-0.7-2.1-1.2-4.2-1.7-6.5c-0.5-2.2-0.8-4.5-0.9-7c-0.1-2.4,0-4.8,0.3-7
						c0.2-2.2,0.6-4.4,1.2-6.4c1.1-4.1,2.5-7.7,3.9-10.7c0.4-0.7,0.7-1.5,1.1-2.1c0.4-0.7,0.7-1.3,1.1-1.9c0.7-1.2,1.4-2.2,1.9-3
						c1.1-1.6,1.8-2.5,1.8-2.5s0.5,0.9,1.3,2.5c0.7,1.6,1.9,3.8,2.9,6.7c0.5,1.4,1,3,1.5,4.6c0.6,1.6,1.1,3.4,1.5,5.3
						c0.4,1.9,0.8,3.9,1.1,6C199.3,540.9,199.6,543.1,199.7,545.4z"/>
					<path class="st1" d="M155.8,574.1c1.1,0.7,2.2,1.4,3.4,2c0.6,0.3,1.1,0.6,1.7,0.9c0.6,0.3,1.1,0.5,1.7,0.8
						c2.3,1,4.5,1.8,6.7,2.4c2.2,0.6,4.3,1.1,6.2,1.5c2,0.3,3.9,0.5,5.7,0.7c3.5,0.2,6.4,0.2,8.4,0c2-0.1,3.2-0.3,3.2-0.3
						s-0.6-1-1.9-2.6c-0.6-0.8-1.4-1.8-2.3-2.9c-0.9-1.1-2-2.3-3.1-3.6c-2.2-2.6-5.1-5.5-8.4-8.5c-1.6-1.5-3.3-3-5.2-4.4
						c-1.9-1.4-3.9-2.8-6-4.2c-2.1-1.4-4.2-2.6-6.3-3.7c-2.1-1.1-4.3-2.1-6.3-3c-4.1-1.8-8-3.2-11.5-4.3c-0.9-0.3-1.7-0.5-2.5-0.7
						c-0.8-0.2-1.5-0.4-2.2-0.6c-1.4-0.4-2.6-0.7-3.7-0.9c-2.1-0.5-3.3-0.6-3.3-0.6s0.4,1.3,1.4,3.4c0.9,2.2,2.5,5.1,4.5,8.4
						c1,1.7,2.2,3.4,3.5,5.3c1.4,1.8,2.9,3.6,4.6,5.4c1.7,1.8,3.4,3.6,5.4,5.2C151.5,571.1,153.6,572.7,155.8,574.1z"/>
				</g>
				<g>
					<path class="st1" d="M177.9,501.6c-0.7,4.4-1.9,8.7-3.4,12.7c-1.3,3.9-2.9,7.5-4.4,10.6c-1.5,3.1-2.9,5.7-3.9,7.4
						c-1,1.8-1.6,2.7-1.6,2.7s-0.6-1-1.6-2.8c-0.9-1.9-2-4.5-3.1-7.8c-1.2-3.2-1.9-7.3-2.5-11.5c-0.1-1.1-0.2-2.2-0.3-3.3
						c-0.1-1.1,0-2.3,0-3.4c0.1-2.3,0.3-4.7,0.7-7c0.2-1.2,0.4-2.3,0.7-3.5c0.3-1.1,0.7-2.2,1.1-3.3c0.8-2.1,1.6-4.2,2.6-6
						c1.8-3.7,4.1-7,6.2-9.6c2.1-2.6,4-4.6,5.4-5.9c1.4-1.3,2.3-2,2.3-2s1.4,3.9,2,9.9c0.5,3,0.8,6.5,0.8,10.3
						C179.1,492.9,178.8,497.1,177.9,501.6z"/>
					<path class="st1" d="M128.9,519.8c3.9,3.7,7.9,6.6,11.8,8.9c4,2.2,7.9,3.7,11.2,4.7c3.3,1,6.1,1.6,8.2,1.9
						c2,0.3,3.2,0.4,3.2,0.4s-0.4-1.1-1.3-3c-0.8-1.9-2.1-4.5-3.8-7.6c-1.8-3-3.7-6.5-6.3-10.1c-0.6-0.9-1.3-1.8-2-2.7
						c-0.7-0.9-1.4-1.8-2.1-2.8c-1.5-1.8-3.1-3.7-4.9-5.5c-0.9-0.9-1.8-1.8-2.7-2.6c-0.9-0.8-1.8-1.7-2.7-2.4
						c-1.8-1.6-3.6-3-5.5-4.4c-3.7-2.7-7.2-4.9-10.3-6.7c-3.1-1.8-5.8-3.2-7.7-4.1c-1.9-0.9-3.1-1.4-3.1-1.4s0.7,5.4,3.2,12.9
						c1.4,3.7,3.2,7.9,5.6,12.2C122.1,511.8,125.2,516,128.9,519.8z"/>
				</g>
				<g>
					<path class="st1" d="M166.5,454c-0.9,2.1-1.9,4.1-2.9,6c-1,1.9-2.1,3.8-3.2,5.5c-2.2,3.5-4.7,6.7-6.7,9.4
						c-2.1,2.7-4,4.8-5.4,6.3c-1.4,1.5-2.2,2.3-2.2,2.3s-0.4-1.1-0.9-3.1c-0.2-1-0.5-2.2-0.8-3.6c-0.1-0.7-0.3-1.4-0.4-2.2
						c-0.1-0.8-0.2-1.6-0.2-2.5c-0.1-1.7-0.2-3.6-0.2-5.6c0-2,0-4.1,0.3-6.2c0.3-2.2,0.7-4.4,1.2-6.6c0.3-1.1,0.6-2.2,0.9-3.3
						c0.3-1.1,0.8-2.2,1.3-3.3c1-2.2,2.1-4.3,3.2-6.2c1.2-1.9,2.4-3.7,3.8-5.3c2.7-3.3,5.6-5.9,8.1-8c1.3-1,2.5-1.9,3.6-2.7
						c1.1-0.8,2.2-1.4,3-1.9c1.7-1,2.7-1.5,2.7-1.5s0.1,1,0.1,2.8c0,1.8,0.1,4.3-0.2,7.3c-0.1,1.5-0.3,3.1-0.6,4.9
						c-0.2,1.7-0.5,3.5-0.9,5.4c-0.4,1.9-1,3.9-1.6,5.9C168.1,449.9,167.4,451.9,166.5,454z"/>
					<path class="st1" d="M114.7,460.8c1.4,2.3,2.9,4.3,4.5,6.2c1.7,1.9,3.4,3.6,5,5.1c3.4,3,6.7,5.4,9.8,7.1
						c3.1,1.7,5.7,2.9,7.6,3.7c1.9,0.7,3,1.1,3,1.1s-0.2-1.2-0.6-3.2c-0.2-1-0.5-2.2-0.9-3.6c-0.2-0.7-0.4-1.4-0.6-2.2
						c-0.2-0.8-0.4-1.6-0.6-2.4c-0.5-1.7-1-3.5-1.7-5.4c-0.7-1.9-1.5-3.9-2.3-5.9c-0.8-2-1.7-4.2-2.8-6.3c-0.5-1.1-1.1-2.1-1.7-3.2
						c-0.6-1.1-1.2-2.1-1.8-3.2c-1.3-2.1-2.7-4.2-4.1-6.1c-1.4-1.9-3-3.7-4.4-5.5c-2.9-3.4-5.9-6.4-8.5-8.9
						c-1.3-1.2-2.6-2.3-3.7-3.3c-1.1-1-2.1-1.8-2.9-2.4c-1.6-1.3-2.7-2-2.7-2s-0.1,1.3-0.2,3.7c-0.1,2.3,0.1,5.6,0.5,9.6
						c0.2,2,0.5,4.1,0.9,6.3c0.5,2.2,1.1,4.5,1.8,6.8c0.7,2.3,1.6,4.7,2.6,7.1C112,456.2,113.2,458.6,114.7,460.8z"/>
				</g>
				<g>
					<path class="st1" d="M165.5,404.9c-1.3,1.8-2.6,3.6-4.1,5.3c-1.4,1.7-3,3.2-4.4,4.7c-2.9,3-5.8,5.6-8.5,7.7
						c-1.3,1.1-2.6,2-3.7,2.9c-1.1,0.8-2.1,1.5-2.9,2.1c-1.6,1.2-2.7,1.8-2.7,1.8s-0.1-1.2-0.2-3.2c-0.1-2,0.1-5,0.5-8.4
						c0.2-1.7,0.5-3.6,0.9-5.5c0.5-1.9,1.1-3.9,1.8-6c0.7-2,1.5-4.1,2.5-6.2c1.1-2,2.3-4.1,3.7-6c1.4-1.9,2.8-3.7,4.4-5.4
						c1.6-1.6,3.3-3,4.9-4.3c3.3-2.6,6.5-4.6,9.6-6c3-1.4,5.6-2.4,7.5-3c1.9-0.6,3-0.8,3-0.8s-0.1,1-0.5,2.8
						c-0.2,0.9-0.4,1.9-0.8,3.1c-0.2,0.6-0.3,1.2-0.5,1.9c-0.2,0.7-0.4,1.4-0.6,2.1c-0.4,1.4-0.9,3-1.6,4.6
						c-0.6,1.6-1.4,3.3-2.1,5.1c-0.8,1.8-1.7,3.6-2.7,5.4c-0.5,0.9-1.1,1.8-1.7,2.7C166.7,403.1,166.2,404,165.5,404.9z"/>
					<path class="st1" d="M113.5,400.2c0.9,2.5,2,4.9,3.2,7.1c1.2,2.2,2.3,4.2,3.7,6.1c2.7,3.7,5.5,6.7,8.1,9.1
						c1.3,1.2,2.5,2.2,3.6,3.1c1.1,0.9,2.2,1.6,3,2.2c1.7,1.2,2.7,1.7,2.7,1.7s0.1-1.2,0.1-3.2c0-2.1,0.1-5-0.2-8.5
						c-0.1-1.7-0.3-3.6-0.6-5.6c-0.2-2-0.5-4.1-0.8-6.3c-0.4-2.2-0.9-4.4-1.5-6.8c-0.5-2.3-1.2-4.7-2-7c-0.8-2.4-1.8-4.7-2.8-6.9
						c-0.9-2.2-2-4.3-3-6.3c-2.1-4-4.5-7.6-6.5-10.5c-2-3-3.9-5.4-5.2-7c-1.3-1.7-2.2-2.6-2.2-2.6s-0.4,1.3-1,3.6
						c-0.3,1.1-0.6,2.5-0.9,4.1c-0.1,0.8-0.3,1.6-0.4,2.5c-0.1,0.9-0.2,1.8-0.3,2.8c-0.2,2-0.3,4.1-0.4,6.3c0,2.3-0.1,4.6,0.2,7.1
						c0.2,2.4,0.6,5,1.1,7.5c0.3,1.3,0.5,2.5,0.9,3.8C112.6,397.6,113,398.9,113.5,400.2z"/>
				</g>
				<g>
					<path class="st1" d="M175.2,357c-0.8,0.7-1.7,1.5-2.6,2.2c-0.8,0.7-1.7,1.4-2.6,2c-1.7,1.3-3.5,2.5-5.3,3.6
						c-3.6,2.2-6.9,4.1-10,5.6c-3,1.5-5.7,2.6-7.6,3.4c-1.9,0.8-3,1.1-3,1.1s0.6-4.7,2.8-11.3c1.3-3.2,2.9-6.9,5.1-10.6
						c2.3-3.7,5.2-7.3,8.7-10.5c3.6-3.1,7.5-5.6,11.2-7.4c3.8-1.7,7.5-2.9,10.7-3.6c3.2-0.7,5.9-1.1,7.9-1.3c2-0.1,3.1-0.1,3.1-0.1
						s-0.4,1-1.1,2.5c-0.7,1.6-1.8,3.9-3.3,6.5c-1.6,2.6-3.3,5.6-5.7,8.6c-0.6,0.8-1.2,1.5-1.9,2.3c-0.7,0.8-1.3,1.6-2,2.3
						C178.4,353.9,176.9,355.5,175.2,357z"/>
					<path class="st1" d="M125.5,340.7c0.2,1.3,0.3,2.6,0.6,3.9c0.3,1.3,0.6,2.5,0.9,3.7c0.7,2.4,1.5,4.7,2.4,6.8
						c1.7,4.2,3.9,7.8,5.9,10.7c2,2.9,3.9,5.1,5.3,6.6c1.4,1.5,2.3,2.3,2.3,2.3s1.5-4.5,2.4-11.5c0.6-3.4,1.1-7.5,1.2-11.9
						c0.3-4.4,0.2-9.2-0.4-14.3c-0.5-5-1.5-9.8-2.8-14.2c-1.2-4.3-2.5-8.3-3.9-11.7c-1.4-3.4-2.7-6.2-3.6-8.1c-0.9-1.9-1.5-3-1.5-3
						s-0.7,1.1-1.8,3.2c-1,2.1-2.3,5.2-3.6,8.9c-1.4,3.7-2.4,8.2-3.1,13c-0.2,1.2-0.3,2.4-0.4,3.7c-0.1,1.2-0.1,2.6-0.2,3.8
						C125.1,335.4,125.2,338,125.5,340.7z"/>
				</g>
				<g>
					<path class="st1" d="M195.2,312.3c-1.9,1.1-3.9,2.1-5.9,3c-2,0.9-4.1,1.6-6,2.3c-3.9,1.4-7.6,2.5-11,3.2
						c-1.7,0.4-3.2,0.7-4.5,1c-1.4,0.3-2.5,0.5-3.5,0.6c-2,0.3-3.2,0.4-3.2,0.4s0.4-1.1,1.2-3c0.8-1.9,2.2-4.4,4-7.4
						c0.9-1.5,2-3,3.2-4.6c1.3-1.5,2.6-3.1,4.1-4.6c1.5-1.5,3.1-3.1,4.9-4.5c1.8-1.4,3.8-2.7,5.9-3.8c1-0.6,2.1-1.1,3.1-1.6
						c0.5-0.2,1-0.5,1.6-0.7c0.5-0.2,1.1-0.4,1.6-0.6c2.1-0.7,4.2-1.3,6.3-1.8c2-0.4,4-0.8,5.9-1c1.9-0.2,3.7-0.2,5.4-0.2
						c3.3,0,6.1,0.3,8,0.6c1.9,0.3,3,0.5,3,0.5s-0.5,0.9-1.6,2.3c-0.5,0.7-1.2,1.5-2,2.5c-0.8,0.9-1.8,1.9-2.7,3.1
						c-2,2.3-4.5,4.7-7.5,7.1c-1.4,1.3-3,2.5-4.7,3.7C199,310.1,197.1,311.2,195.2,312.3z"/>
					<path class="st1" d="M150.3,285.3c-0.2,2.7-0.3,5.3-0.2,7.7c0.1,2.5,0.3,4.8,0.8,7.1c0.9,4.5,2.1,8.5,3.4,11.8
						c0.3,0.8,0.6,1.6,1,2.3c0.3,0.7,0.7,1.4,1,2.1c0.7,1.3,1.3,2.4,1.8,3.3c1,1.8,1.7,2.7,1.7,2.7s0.6-1,1.5-2.9
						c0.8-1.9,2.2-4.5,3.4-7.7c0.6-1.6,1.3-3.4,1.9-5.3c0.7-1.9,1.3-3.9,1.9-6c0.6-2.1,1.1-4.4,1.5-6.7c0.5-2.3,0.9-4.7,1.2-7.3
						c0.1-1.3,0.2-2.5,0.3-3.8c0-1.2,0.1-2.5,0.1-3.7c0.1-2.4,0-4.7-0.1-7c-0.1-2.3-0.3-4.5-0.6-6.6c-0.2-2.1-0.5-4-0.7-5.8
						c-0.6-3.6-1.2-6.5-1.7-8.6c-0.5-2.1-0.9-3.3-0.9-3.3s-0.9,1-2.4,2.8c-0.7,0.9-1.6,2-2.5,3.3c-0.9,1.3-2,2.8-3,4.5
						c-2,3.4-4.1,7.4-5.9,12c-0.8,2.3-1.6,4.7-2.2,7.2C151,280.1,150.5,282.6,150.3,285.3z"/>
				</g>
				<g>
					<path class="st1" d="M224.4,273.2c-2.1,0.6-4.4,1.1-6.5,1.5c-2.1,0.4-4.2,0.8-6.3,1c-2.1,0.2-4.1,0.4-6,0.5
						c-1.9,0.1-3.7,0.2-5.4,0.2c-3.4,0.1-6.2-0.1-8.3-0.2c-2-0.1-3.2-0.3-3.2-0.3s0.6-1,1.9-2.6c0.6-0.8,1.4-1.8,2.3-2.9
						c0.9-1.1,1.9-2.3,3.2-3.5c1.2-1.2,2.6-2.4,4.1-3.7c0.8-0.6,1.5-1.3,2.4-1.9c0.4-0.3,0.8-0.6,1.3-0.9c0.4-0.3,0.9-0.6,1.4-0.9
						c1.8-1.1,3.8-2.2,5.8-3.2c1-0.5,2.1-1,3.1-1.4c1.1-0.4,2.2-0.8,3.4-1.1c2.3-0.6,4.6-1.1,6.8-1.4c1.1-0.1,2.2-0.3,3.3-0.3
						c1.1-0.1,2.2-0.1,3.2,0c4.2,0.1,8,0.6,11.2,1.3c3.2,0.7,5.9,1.7,7.7,2.3c1.8,0.7,2.9,1.2,2.9,1.2s-0.7,0.7-2.1,1.8
						c-1.4,1.1-3.3,2.7-5.7,4.4c-1.2,0.9-2.6,1.7-4.1,2.6c-1.5,0.9-3,1.8-4.7,2.7c-1.7,0.9-3.5,1.7-5.5,2.5
						C228.6,271.9,226.6,272.6,224.4,273.2z"/>
					<path class="st1" d="M186.5,236.9c-0.8,2.6-1.5,5-1.9,7.5c-0.4,2.5-0.6,4.9-0.7,7.2c-0.1,2.3-0.1,4.5,0,6.5s0.4,4,0.7,5.7
						c0.6,3.5,1.4,6.3,2,8.3c0.6,2,1.1,3,1.1,3s0.8-0.9,2.1-2.5c0.6-0.8,1.4-1.8,2.2-2.9c0.8-1.1,1.7-2.5,2.7-3.9c1-1.4,2-3,3.1-4.7
						c0.5-0.9,1-1.8,1.5-2.7c0.2-0.5,0.5-0.9,0.8-1.4c0.3-0.5,0.5-0.9,0.8-1.4c1.1-1.9,2.1-4,3-6.2c0.5-1.1,0.9-2.2,1.4-3.4
						c0.4-1.2,0.9-2.3,1.3-3.5c0.8-2.4,1.5-4.8,2.1-7.1c0.3-1.2,0.5-2.4,0.7-3.5c0.2-1.1,0.5-2.3,0.7-3.4c0.8-4.4,1.2-8.7,1.4-12.3
						c0.2-3.7,0.3-6.6,0.2-8.8c0-2.1-0.2-3.4-0.2-3.4s-1.1,0.7-2.9,2.2c-1.9,1.4-4.3,3.6-7,6.4c-1.4,1.4-2.8,3-4.2,4.7
						c-1.4,1.7-2.8,3.7-4.1,5.7c-1.3,2.1-2.6,4.2-3.8,6.5C188.3,231.9,187.3,234.4,186.5,236.9z"/>
				</g>
				<g>
					<path class="st1" d="M261.4,241.5c-4.4,0.3-8.8,0.2-13-0.3c-4.1-0.4-7.9-1.1-11.2-1.8c-3.3-0.7-6.1-1.5-8-2.1c-1.9-0.6-3-1-3-1
						s0.2-0.2,0.6-0.6c0.4-0.4,1-1,1.7-1.6c1.6-1.3,3.9-3,6.8-4.9c5.8-3.7,14.3-7.4,23.7-8c2.3-0.2,4.7,0,6.9,0.2
						c2.2,0.2,4.4,0.6,6.4,1.1c1,0.2,2,0.5,2.9,0.8c1,0.3,1.9,0.6,2.8,1c1.8,0.7,3.4,1.4,4.9,2.1c3,1.4,5.3,2.8,7,3.9
						c0.8,0.5,1.4,1,1.9,1.3c0.4,0.3,0.7,0.5,0.7,0.5s-0.9,0.5-2.4,1.4c-1.5,0.8-3.8,1.9-6.6,3c-1.4,0.5-2.9,1.2-4.5,1.7
						c-1.6,0.6-3.4,1.1-5.2,1.5c-0.5,0.1-0.9,0.2-1.4,0.3c-0.5,0.1-0.9,0.2-1.4,0.4c-1,0.2-2,0.4-3,0.6
						C265.8,241.2,263.6,241.4,261.4,241.5z"/>
					<path class="st1" d="M232.2,197.7c-2.7,4.6-4.5,9.4-5.7,13.7c-1.2,4.4-1.7,8.6-1.9,12.1c-0.2,3.5-0.1,6.4,0.1,8.5
						c0.2,2.1,0.4,3.2,0.4,3.2s0.2-0.2,0.7-0.5c0.4-0.3,1-0.9,1.9-1.5c1.6-1.2,3.9-3.1,6.3-5.5c5-4.8,11.4-11.5,16.6-20.1
						c1.3-2.2,2.5-4.3,3.6-6.5c1.1-2.2,2-4.3,2.9-6.4c0.4-1.1,0.8-2.1,1.2-3.1c0.4-1,0.8-2,1.1-3c0.7-1.9,1.3-3.8,1.8-5.6
						c1-3.5,1.7-6.5,2.1-8.6c0.2-1.1,0.3-1.9,0.4-2.4c0.1-0.6,0.1-0.9,0.1-0.9s-0.3,0.1-0.9,0.3c-0.6,0.2-1.4,0.6-2.4,1.1
						c-2.1,1-5,2.6-8.3,4.7c-1.7,1-3.3,2.4-5.1,3.7c-1.7,1.4-3.5,2.9-5.3,4.6c-0.4,0.4-0.9,0.8-1.3,1.3c-0.4,0.5-0.8,0.9-1.3,1.4
						c-0.8,0.9-1.7,1.9-2.5,2.9C235.1,193.3,233.6,195.4,232.2,197.7z"/>
				</g>
				<path class="st1" d="M289.1,178.6c-2.4,1.2-4.6,2.4-6.7,3.8c-1,0.7-2,1.4-2.9,2.1c-0.9,0.7-1.8,1.5-2.7,2.3
					c-3.4,3-6.1,6.1-8.3,8.9c-2.1,2.9-3.6,5.4-4.6,7.2c-1,1.8-1.4,2.9-1.4,2.9s1.2,0,3.2-0.2c1-0.1,2.2-0.2,3.6-0.4
					c1.4-0.2,3-0.3,4.7-0.6c3.4-0.5,7.4-1.5,11.6-2.5c2.1-0.6,4.3-1.3,6.5-2.1c0.6-0.2,1.1-0.4,1.7-0.7c0.6-0.2,1.1-0.4,1.7-0.6
					c1.1-0.4,2.3-0.9,3.4-1.4c2.3-1,4.5-2.2,6.5-3.4c2.1-1.2,4.1-2.4,5.9-3.7c3.7-2.5,7.1-5.2,9.8-7.5c2.7-2.3,4.9-4.4,6.5-5.8
					c1.5-1.5,2.3-2.4,2.3-2.4s-1.3-0.3-3.6-0.7c-1.1-0.2-2.5-0.4-4.1-0.5c-1.6-0.2-3.4-0.2-5.3-0.2c-2,0-4.1,0-6.3,0.2
					c-1.1,0.1-2.2,0.1-3.4,0.3c-1.2,0.2-2.3,0.4-3.5,0.6C298.9,174.9,293.9,176.2,289.1,178.6z"/>
			</g>
			<g>
				<path class="st1" d="M451.9,714.4c-1,0-2.1-0.4-2.9-1.1c-28-24.3-119.7-41.3-120.6-41.5c-99.1-24.6-146.1-87.1-168.1-135.2
					c-35.6-77.8-29.2-167.8-4.5-216.4c43.3-85.1,127.2-133.9,128-134.4c2.1-1.2,4.9-0.5,6.1,1.7c1.2,2.1,0.5,4.9-1.7,6.1
					c-0.8,0.5-82.5,48.1-124.5,130.7C140,371,134,457.7,168.4,532.9c21.2,46.3,66.4,106.5,161.8,130.2c3.6,0.7,94.7,17.6,124.6,43.4
					c1.9,1.6,2.1,4.4,0.5,6.3C454.4,713.9,453.2,714.4,451.9,714.4z"/>
			</g>
		</g>
		<g>
			<g>
				<g>
					<path class="st1" d="M492.7,634.5c-1.5,1.7-2.8,3.5-4.1,5.3c-1.2,1.8-2.4,3.5-3.5,5.3c-2.2,3.6-3.9,7.2-5.4,10.2
						c-1.4,3-2.5,5.7-3.2,7.6c-0.7,1.9-1.1,3.1-1.1,3.1s1.2-0.2,3.1-0.6c1-0.2,2.2-0.5,3.5-0.9c1.3-0.4,2.8-1,4.4-1.6
						c1.6-0.6,3.3-1.4,5.1-2.2c0.9-0.4,1.8-0.9,2.7-1.4c0.9-0.5,1.8-1.1,2.7-1.7c3.6-2.4,7.2-5.2,10.2-9c1.5-1.8,2.9-3.7,4.1-5.6
						c0.6-0.9,1.1-1.9,1.6-2.9c0.5-1,1-2,1.4-2.9c1.7-3.9,2.8-7.6,3.5-10.8c0.7-3.3,0.9-6.1,1.1-8.1c0.1-2,0.1-3.1,0.1-3.1
						s-1,0.4-2.5,1.1c-0.8,0.4-1.7,0.9-2.8,1.5c-1.1,0.6-2.3,1.2-3.6,2c-2.6,1.5-5.4,3.6-8.4,5.9c-1.5,1.2-3,2.5-4.5,4l-1.1,1.1
						l-1.1,1.1C494.2,632.8,493.4,633.6,492.7,634.5z"/>
					<path class="st1" d="M509.7,684.5c-2.6-0.3-5.1-0.8-7.5-1.4c-2.4-0.6-4.6-1.5-6.7-2.3c-4.2-1.8-7.8-3.7-10.7-5.7
						c-2.9-2-5.1-3.9-6.6-5.3c-1.5-1.4-2.3-2.3-2.3-2.3s1.1-0.4,3.1-0.9c1-0.2,2.2-0.5,3.6-0.8c1.4-0.3,2.9-0.7,4.6-1
						c1.7-0.3,3.5-0.6,5.5-0.8c1-0.1,2-0.2,3.1-0.3c1-0.1,2.1-0.2,3.2-0.3c4.4-0.3,9.2-0.2,14.1,0.2c2.5,0.2,4.9,0.6,7.3,1.1
						c1.2,0.2,2.3,0.5,3.5,0.7c1.1,0.2,2.2,0.5,3.3,0.8c4.3,1.1,8.3,2.5,11.7,3.9c3.3,1.3,6.1,2.5,8,3.4c1.9,0.9,3,1.5,3,1.5
						s-1.1,0.7-3.2,1.8c-1,0.5-2.3,1.2-3.7,1.9c-1.5,0.7-3.1,1.3-5,2c-3.7,1.3-8,2.7-12.8,3.3c-2.4,0.4-4.9,0.6-7.4,0.8
						c-0.6,0-1.3,0.1-1.9,0.1c-0.7,0-1.3,0-2-0.1C512.3,684.7,511,684.6,509.7,684.5z"/>
				</g>
				<g>
					<path class="st1" d="M536.5,613.5c-1,2.1-2,4-2.8,6c-0.8,2-1.6,4.1-2.2,6.1c-0.3,1-0.6,2-0.9,3c-0.3,1-0.6,1.9-0.8,2.8
						c-0.5,1.9-0.9,3.6-1.3,5.3c-0.7,3.3-1.2,6.2-1.4,8.3c-0.1,1-0.2,1.8-0.3,2.4c-0.1,0.5-0.1,0.8-0.1,0.8s0.3-0.1,0.8-0.3
						c0.5-0.2,1.2-0.6,2.1-1c1.8-0.9,4.4-2.3,7.2-4.2c1.5-0.9,2.9-2.1,4.4-3.4c1.5-1.3,3-2.7,4.6-4.2c0.4-0.4,0.7-0.8,1.1-1.2
						c0.4-0.4,0.7-0.8,1.1-1.3c0.7-0.9,1.4-1.8,2.1-2.7c1.4-1.9,2.6-3.8,3.8-5.9c2.2-4.3,3.6-8.7,4.4-12.8c0.8-4.1,1-8.1,1-11.4
						c0-3.3-0.3-6.1-0.6-8c-0.3-2-0.6-3.1-0.6-3.1s-0.2,0.2-0.6,0.4c-0.4,0.3-0.9,0.7-1.6,1.3c-1.4,1.1-3.3,2.7-5.4,4.8
						C546,599.6,540.6,605.5,536.5,613.5z"/>
					<path class="st1" d="M563.9,658.5c-2.6,0.4-5.2,0.4-7.7,0.3c-2.5-0.1-4.8-0.3-7-0.7c-1.1-0.2-2.2-0.4-3.2-0.6
						c-1.1-0.3-2.1-0.5-3.1-0.8c-2-0.6-3.8-1.2-5.4-1.8c-3.3-1.3-5.8-2.6-7.6-3.6c-0.9-0.5-1.6-0.9-2-1.2c-0.5-0.3-0.7-0.5-0.7-0.5
						s1-0.6,2.8-1.6c1.8-1,4.4-2.2,7.6-3.5c1.6-0.6,3.3-1.4,5.2-2.1c1.9-0.7,3.9-1.4,6-1.9c0.5-0.1,1.1-0.3,1.6-0.4
						c0.5-0.2,1.1-0.3,1.6-0.5c1.1-0.3,2.2-0.6,3.4-0.8c2.3-0.5,4.7-0.9,7.2-1.2c4.9-0.7,9.7-0.8,14.3-0.6c4.5,0.2,8.6,0.5,12.2,1.1
						c3.5,0.5,6.6,1.2,8.6,1.6c2,0.5,3.2,0.8,3.2,0.8s-0.2,0.2-0.7,0.7c-0.5,0.4-1.1,1.1-2,1.8c-1.8,1.5-4.4,3.5-7.7,5.6
						c-0.8,0.5-1.7,1.1-2.6,1.6c-0.9,0.5-1.9,1-2.9,1.5c-2,1-4.1,2-6.4,2.9c-1.1,0.5-2.3,0.9-3.4,1.3c-1.2,0.4-2.4,0.7-3.7,1
						C569.1,657.7,566.5,658.2,563.9,658.5z"/>
				</g>
				<g>
					<path class="st1" d="M574.6,583.3c-0.6,2.2-1.1,4.3-1.4,6.5c-0.2,1.1-0.3,2.2-0.5,3.3c-0.1,1.1-0.3,2.1-0.4,3.1
						c-0.4,4.1-0.5,8.1-0.5,11.6c0,3.5,0.2,6.3,0.3,8.3c0.2,2,0.3,3.2,0.3,3.2s1-0.6,2.6-1.9c1.6-1.2,3.8-3.2,6.1-5.7
						c1.2-1.3,2.4-2.7,3.6-4.2c1.2-1.6,2.4-3.3,3.5-5.2c1.1-1.9,2.2-3.8,3.1-5.9c0.9-2.1,1.7-4.4,2.3-6.7c0.6-2.3,1.1-4.6,1.3-6.8
						c0.2-2.3,0.3-4.5,0.2-6.6c-0.1-2.1-0.2-4.1-0.5-6c-0.2-1.9-0.6-3.7-1-5.3c-0.8-3.3-1.7-5.9-2.4-7.7c-0.7-1.8-1.2-2.8-1.2-2.8
						s-0.7,0.7-1.8,2.1c-0.6,0.7-1.2,1.5-1.9,2.5c-0.7,1-1.4,2.2-2.3,3.4c-0.8,1.2-1.7,2.6-2.6,4.1c-0.4,0.8-0.8,1.5-1.3,2.4
						c-0.2,0.4-0.4,0.8-0.6,1.3c-0.2,0.4-0.4,0.8-0.7,1.3c-0.9,1.7-1.7,3.6-2.4,5.5c-0.4,1-0.7,2-1,3.1
						C575.3,581.2,574.9,582.2,574.6,583.3z"/>
					<path class="st1" d="M611.2,621.1c-2.5,0.9-5,1.5-7.4,2c-1.2,0.2-2.4,0.4-3.5,0.6c-1.2,0.1-2.3,0.2-3.5,0.3
						c-4.5,0.2-8.6-0.1-12.1-0.5c-3.4-0.5-6.3-1.3-8.3-1.9c-2-0.6-3-1.1-3-1.1s0.9-0.8,2.4-2.1c1.6-1.3,3.8-3.1,6.6-5.2
						c1.4-1,3-2.1,4.7-3.1c1.7-1.1,3.4-2.2,5.3-3.3c1.9-1.1,4-2.1,6.1-3.1c2.1-1,4.3-2,6.7-2.9c2.3-0.9,4.8-1.5,7-2.2
						c2.3-0.6,4.5-1.2,6.8-1.6c2.2-0.4,4.4-0.7,6.4-1c2.1-0.2,3.9-0.5,5.7-0.6c3.6-0.3,6.6-0.4,8.7-0.3c2.1,0,3.3,0.1,3.3,0.1
						s-0.7,1.1-2.1,3c-0.7,0.9-1.6,2-2.6,3.3c-1,1.2-2.2,2.6-3.6,4c-1.4,1.4-3,2.8-4.6,4.3c-0.8,0.7-1.7,1.5-2.6,2.2
						c-0.5,0.4-0.9,0.7-1.4,1.1c-0.5,0.3-1,0.7-1.5,1c-2,1.4-4.2,2.7-6.4,3.9c-1.1,0.6-2.3,1.2-3.5,1.7
						C613.7,620.2,612.4,620.7,611.2,621.1z"/>
				</g>
				<g>
					<path class="st1" d="M605.3,545.4c0,1.1-0.1,2.3,0,3.4c0,1.1,0.1,2.2,0.1,3.3c0.1,2.2,0.3,4.3,0.5,6.4c0.3,2.1,0.6,4.1,0.9,6
						c0.3,1.9,0.7,3.7,1.1,5.3c0.7,3.3,1.5,6.1,2.2,8.1c0.6,2,1,3.1,1,3.1s0.8-0.9,2.1-2.4c0.6-0.8,1.4-1.8,2.2-2.9
						c0.8-1.2,1.8-2.4,2.6-4c1.7-3,3.5-6.6,4.9-10.7c0.7-2.1,1.2-4.2,1.7-6.5c0.5-2.2,0.8-4.5,0.9-7c0.1-2.4,0-4.8-0.3-7
						c-0.2-2.2-0.6-4.4-1.2-6.4c-1.1-4.1-2.5-7.7-3.9-10.7c-0.4-0.7-0.7-1.5-1.1-2.1c-0.4-0.7-0.7-1.3-1.1-1.9
						c-0.7-1.2-1.4-2.2-1.9-3c-1.1-1.6-1.8-2.5-1.8-2.5s-0.5,0.9-1.3,2.5c-0.7,1.6-1.9,3.8-2.9,6.7c-0.5,1.4-1,3-1.5,4.6
						c-0.6,1.6-1.1,3.4-1.5,5.3c-0.4,1.9-0.8,3.9-1.1,6C605.6,540.9,605.4,543.1,605.3,545.4z"/>
					<path class="st1" d="M649.2,574.1c-1.1,0.7-2.2,1.4-3.4,2c-0.6,0.3-1.1,0.6-1.7,0.9c-0.6,0.3-1.1,0.5-1.7,0.8
						c-2.3,1-4.5,1.8-6.7,2.4c-2.2,0.6-4.3,1.1-6.2,1.5c-2,0.3-3.9,0.5-5.7,0.7c-3.5,0.2-6.4,0.2-8.4,0c-2-0.1-3.2-0.3-3.2-0.3
						s0.6-1,1.9-2.6c0.6-0.8,1.4-1.8,2.3-2.9c0.9-1.1,2-2.3,3.1-3.6c2.2-2.6,5.1-5.5,8.4-8.5c1.6-1.5,3.3-3,5.2-4.4
						c1.9-1.4,3.9-2.8,6-4.2c2.1-1.4,4.2-2.6,6.3-3.7c2.1-1.1,4.3-2.1,6.3-3c4.1-1.8,8-3.2,11.5-4.3c0.9-0.3,1.7-0.5,2.5-0.7
						c0.8-0.2,1.5-0.4,2.2-0.6c1.4-0.4,2.6-0.7,3.7-0.9c2.1-0.5,3.3-0.6,3.3-0.6s-0.4,1.3-1.4,3.4c-0.9,2.2-2.5,5.1-4.5,8.4
						c-1,1.7-2.2,3.4-3.5,5.3c-1.4,1.8-2.9,3.6-4.6,5.4c-1.7,1.8-3.4,3.6-5.4,5.2C653.5,571.1,651.4,572.7,649.2,574.1z"/>
				</g>
				<g>
					<path class="st1" d="M627,501.6c0.7,4.4,1.9,8.7,3.4,12.7c1.3,3.9,2.9,7.5,4.4,10.6c1.5,3.1,2.9,5.7,3.9,7.4
						c1,1.8,1.6,2.7,1.6,2.7s0.6-1,1.6-2.8c0.9-1.9,2-4.5,3.1-7.8c1.2-3.2,2-7.3,2.5-11.5c0.1-1.1,0.2-2.2,0.3-3.3
						c0.1-1.1,0-2.3,0-3.4c-0.1-2.3-0.3-4.7-0.7-7c-0.2-1.2-0.4-2.3-0.7-3.5c-0.3-1.1-0.7-2.2-1.1-3.3c-0.8-2.1-1.6-4.2-2.6-6
						c-1.8-3.7-4.1-7-6.2-9.6c-2.1-2.6-4-4.6-5.4-5.9c-1.4-1.3-2.3-2-2.3-2s-1.4,3.9-2,9.9c-0.5,3-0.8,6.5-0.8,10.3
						C625.9,492.9,626.2,497.1,627,501.6z"/>
					<path class="st1" d="M676.1,519.8c-3.9,3.7-7.9,6.6-11.8,8.9c-4,2.2-7.9,3.7-11.2,4.7c-3.3,1-6.1,1.6-8.2,1.9
						c-2,0.3-3.2,0.4-3.2,0.4s0.4-1.1,1.3-3c0.8-1.9,2.1-4.5,3.8-7.6c1.8-3,3.7-6.5,6.3-10.1c0.6-0.9,1.3-1.8,2-2.7
						c0.7-0.9,1.4-1.8,2.1-2.8c1.5-1.8,3.1-3.7,4.9-5.5c0.9-0.9,1.8-1.8,2.7-2.6c0.9-0.8,1.8-1.7,2.7-2.4c1.8-1.6,3.6-3,5.5-4.4
						c3.7-2.7,7.2-4.9,10.3-6.7c3.1-1.8,5.8-3.2,7.7-4.1c1.9-0.9,3.1-1.4,3.1-1.4s-0.7,5.4-3.2,12.9c-1.4,3.7-3.2,7.9-5.6,12.2
						C682.9,511.8,679.8,516,676.1,519.8z"/>
				</g>
				<g>
					<path class="st1" d="M638.5,454c0.9,2.1,1.9,4.1,2.9,6c1,1.9,2.1,3.8,3.2,5.5c2.2,3.5,4.7,6.7,6.7,9.4c2.1,2.7,4,4.8,5.4,6.3
						c1.4,1.5,2.2,2.3,2.2,2.3s0.4-1.1,0.9-3.1c0.2-1,0.5-2.2,0.8-3.6c0.1-0.7,0.3-1.4,0.4-2.2c0.1-0.8,0.2-1.6,0.2-2.5
						c0.1-1.7,0.2-3.6,0.2-5.6c0-2,0-4.1-0.3-6.2c-0.3-2.2-0.7-4.4-1.2-6.6c-0.3-1.1-0.6-2.2-0.9-3.3c-0.3-1.1-0.8-2.2-1.3-3.3
						c-1-2.2-2.1-4.3-3.2-6.2c-1.2-1.9-2.4-3.7-3.8-5.3c-2.7-3.3-5.6-5.9-8.1-8c-1.3-1-2.5-1.9-3.6-2.7c-1.1-0.8-2.2-1.4-3-1.9
						c-1.7-1-2.7-1.5-2.7-1.5s-0.1,1-0.1,2.8c0,1.8-0.1,4.3,0.2,7.3c0.1,1.5,0.3,3.1,0.6,4.9c0.2,1.7,0.5,3.5,0.9,5.4
						c0.4,1.9,1,3.9,1.6,5.9C636.9,449.9,637.6,451.9,638.5,454z"/>
					<path class="st1" d="M690.3,460.8c-1.4,2.3-2.9,4.3-4.5,6.2c-1.7,1.9-3.4,3.6-5,5.1c-3.4,3-6.7,5.4-9.8,7.1
						c-3.1,1.7-5.7,2.9-7.6,3.7c-1.9,0.7-3,1.1-3,1.1s0.2-1.2,0.6-3.2c0.2-1,0.5-2.2,0.9-3.6c0.2-0.7,0.4-1.4,0.6-2.2
						c0.2-0.8,0.4-1.6,0.6-2.4c0.5-1.7,1-3.5,1.7-5.4c0.7-1.9,1.5-3.9,2.3-5.9c0.8-2,1.7-4.2,2.8-6.3c0.5-1.1,1.1-2.1,1.7-3.2
						c0.6-1.1,1.2-2.1,1.8-3.2c1.3-2.1,2.7-4.2,4.1-6.1c1.4-1.9,3-3.7,4.4-5.5c2.9-3.4,5.9-6.4,8.5-8.9c1.3-1.2,2.6-2.3,3.7-3.3
						c1.1-1,2.1-1.8,2.9-2.4c1.6-1.3,2.7-2,2.7-2s0.1,1.3,0.2,3.7c0.1,2.3-0.1,5.6-0.5,9.6c-0.2,2-0.5,4.1-0.9,6.3
						c-0.5,2.2-1.1,4.5-1.8,6.8c-0.7,2.3-1.6,4.7-2.6,7.1C693,456.2,691.7,458.6,690.3,460.8z"/>
				</g>
				<g>
					<path class="st1" d="M639.5,404.9c1.3,1.8,2.6,3.6,4.1,5.3c1.4,1.7,3,3.2,4.4,4.7c2.9,3,5.8,5.6,8.5,7.7c1.3,1.1,2.6,2,3.7,2.9
						c1.1,0.8,2.1,1.5,2.9,2.1c1.6,1.2,2.7,1.8,2.7,1.8s0.1-1.2,0.2-3.2c0.1-2-0.1-5-0.5-8.4c-0.2-1.7-0.5-3.6-0.9-5.5
						c-0.5-1.9-1.1-3.9-1.8-6c-0.7-2-1.5-4.1-2.5-6.2c-1.1-2-2.3-4.1-3.7-6c-1.4-1.9-2.8-3.7-4.4-5.4c-1.6-1.6-3.3-3-4.9-4.3
						c-3.3-2.6-6.5-4.6-9.6-6c-3-1.4-5.6-2.4-7.5-3c-1.9-0.6-3-0.8-3-0.8s0.1,1,0.5,2.8c0.2,0.9,0.4,1.9,0.8,3.1
						c0.2,0.6,0.3,1.2,0.5,1.9c0.2,0.7,0.4,1.4,0.6,2.1c0.4,1.4,0.9,3,1.6,4.6c0.6,1.6,1.4,3.3,2.1,5.1c0.8,1.8,1.7,3.6,2.7,5.4
						c0.5,0.9,1.1,1.8,1.7,2.7C638.3,403.1,638.8,404,639.5,404.9z"/>
					<path class="st1" d="M691.5,400.2c-0.9,2.5-2,4.9-3.2,7.1c-1.2,2.2-2.3,4.2-3.7,6.1c-2.7,3.7-5.5,6.7-8.1,9.1
						c-1.3,1.2-2.5,2.2-3.6,3.1c-1.1,0.9-2.2,1.6-3,2.2c-1.7,1.2-2.7,1.7-2.7,1.7s-0.1-1.2-0.1-3.2c0-2.1-0.1-5,0.2-8.5
						c0.1-1.7,0.3-3.6,0.6-5.6c0.2-2,0.5-4.1,0.8-6.3c0.4-2.2,0.9-4.4,1.5-6.8c0.5-2.3,1.2-4.7,2-7c0.8-2.4,1.8-4.7,2.8-6.9
						c0.9-2.2,2-4.3,3-6.3c2.1-4,4.5-7.6,6.5-10.5c2-3,3.9-5.4,5.2-7c1.3-1.7,2.2-2.6,2.2-2.6s0.4,1.3,1,3.6
						c0.3,1.1,0.6,2.5,0.9,4.1c0.1,0.8,0.3,1.6,0.4,2.5c0.1,0.9,0.2,1.8,0.3,2.8c0.2,2,0.3,4.1,0.4,6.3c0,2.3,0.1,4.6-0.2,7.1
						c-0.2,2.4-0.6,5-1.1,7.5c-0.3,1.3-0.5,2.5-0.9,3.8C692.4,397.6,692,398.9,691.5,400.2z"/>
				</g>
				<g>
					<path class="st1" d="M629.8,357c0.8,0.7,1.7,1.5,2.6,2.2c0.8,0.7,1.7,1.4,2.6,2c1.7,1.3,3.5,2.5,5.3,3.6
						c3.6,2.2,6.9,4.1,10,5.6c3,1.5,5.7,2.6,7.6,3.4c1.9,0.8,3,1.1,3,1.1s-0.6-4.7-2.8-11.3c-1.3-3.2-2.9-6.9-5.1-10.6
						c-2.3-3.7-5.2-7.3-8.7-10.5c-3.6-3.1-7.5-5.6-11.2-7.4c-3.8-1.7-7.5-2.9-10.7-3.6c-3.2-0.7-5.9-1.1-7.9-1.3
						c-2-0.1-3.1-0.1-3.1-0.1s0.4,1,1.1,2.5c0.7,1.6,1.8,3.9,3.3,6.5c1.6,2.6,3.3,5.6,5.7,8.6c0.6,0.8,1.2,1.5,1.9,2.3
						c0.7,0.8,1.3,1.6,2,2.3C626.5,353.9,628.1,355.5,629.8,357z"/>
					<path class="st1" d="M679.5,340.7c-0.2,1.3-0.3,2.6-0.6,3.9c-0.3,1.3-0.6,2.5-0.9,3.7c-0.7,2.4-1.5,4.7-2.4,6.8
						c-1.7,4.2-3.9,7.8-5.9,10.7c-2,2.9-3.9,5.1-5.3,6.6c-1.4,1.5-2.3,2.3-2.3,2.3s-1.5-4.5-2.4-11.5c-0.6-3.4-1.1-7.5-1.2-11.9
						c-0.3-4.4-0.2-9.2,0.4-14.3c0.5-5,1.5-9.8,2.8-14.2c1.2-4.3,2.5-8.3,3.9-11.7c1.4-3.4,2.7-6.2,3.6-8.1c0.9-1.9,1.5-3,1.5-3
						s0.7,1.1,1.8,3.2c1,2.1,2.3,5.2,3.6,8.9c1.4,3.7,2.4,8.2,3.1,13c0.2,1.2,0.3,2.4,0.5,3.7c0.1,1.2,0.1,2.6,0.2,3.8
						C679.9,335.4,679.8,338,679.5,340.7z"/>
				</g>
				<g>
					<path class="st1" d="M609.8,312.3c1.9,1.1,3.9,2.1,5.9,3c2,0.9,4.1,1.6,6,2.3c3.9,1.4,7.6,2.5,11,3.2c1.7,0.4,3.2,0.7,4.5,1
						c1.4,0.3,2.5,0.5,3.5,0.6c2,0.3,3.2,0.4,3.2,0.4s-0.4-1.1-1.2-3c-0.8-1.9-2.2-4.4-4-7.4c-0.9-1.5-2-3-3.2-4.6
						c-1.3-1.5-2.6-3.1-4.1-4.6c-1.5-1.5-3.1-3.1-4.9-4.5c-1.8-1.4-3.8-2.7-5.9-3.8c-1-0.6-2.1-1.1-3.1-1.6c-0.5-0.2-1-0.5-1.6-0.7
						c-0.5-0.2-1.1-0.4-1.6-0.6c-2.1-0.7-4.2-1.3-6.3-1.8c-2-0.4-4-0.8-5.9-1c-1.9-0.2-3.7-0.2-5.4-0.2c-3.3,0-6.1,0.3-8,0.6
						c-1.9,0.3-3,0.5-3,0.5s0.5,0.9,1.6,2.3c0.5,0.7,1.2,1.5,2,2.5c0.8,0.9,1.8,1.9,2.7,3.1c2,2.3,4.5,4.7,7.5,7.1
						c1.4,1.3,3,2.5,4.7,3.7C606,310.1,607.9,311.2,609.8,312.3z"/>
					<path class="st1" d="M654.7,285.3c0.2,2.7,0.3,5.3,0.2,7.7c-0.1,2.5-0.3,4.8-0.8,7.1c-0.9,4.5-2.1,8.5-3.4,11.8
						c-0.3,0.8-0.6,1.6-1,2.3c-0.3,0.7-0.7,1.4-1,2.1c-0.7,1.3-1.3,2.4-1.8,3.3c-1,1.8-1.7,2.7-1.7,2.7s-0.6-1-1.5-2.9
						c-0.8-1.9-2.2-4.5-3.4-7.7c-0.6-1.6-1.3-3.4-1.9-5.3c-0.7-1.9-1.3-3.9-1.9-6c-0.6-2.1-1.1-4.4-1.5-6.7
						c-0.5-2.3-0.9-4.7-1.2-7.3c-0.1-1.3-0.2-2.5-0.3-3.8c0-1.2-0.1-2.5-0.1-3.7c-0.1-2.4,0-4.7,0.1-7c0.1-2.3,0.3-4.5,0.6-6.6
						c0.2-2.1,0.5-4,0.7-5.8c0.6-3.6,1.2-6.5,1.7-8.6c0.5-2.1,0.9-3.3,0.9-3.3s0.9,1,2.4,2.8c0.7,0.9,1.6,2,2.5,3.3
						c0.9,1.3,2,2.8,3,4.5c2,3.4,4.1,7.4,5.9,12c0.8,2.3,1.6,4.7,2.2,7.2C654,280.1,654.5,282.6,654.7,285.3z"/>
				</g>
				<g>
					<path class="st1" d="M580.6,273.2c2.1,0.6,4.4,1.1,6.5,1.5c2.1,0.4,4.2,0.8,6.3,1c2.1,0.2,4.1,0.4,6,0.5
						c1.9,0.1,3.7,0.2,5.4,0.2c3.4,0.1,6.2-0.1,8.3-0.2c2-0.1,3.2-0.3,3.2-0.3s-0.6-1-1.9-2.6c-0.6-0.8-1.4-1.8-2.3-2.9
						c-0.9-1.1-1.9-2.3-3.2-3.5c-1.2-1.2-2.6-2.4-4.1-3.7c-0.8-0.6-1.5-1.3-2.4-1.9c-0.4-0.3-0.8-0.6-1.3-0.9
						c-0.4-0.3-0.9-0.6-1.4-0.9c-1.8-1.1-3.8-2.2-5.8-3.2c-1-0.5-2.1-1-3.1-1.4c-1.1-0.4-2.2-0.8-3.4-1.1c-2.3-0.6-4.6-1.1-6.8-1.4
						c-1.1-0.1-2.2-0.3-3.3-0.3c-1.1-0.1-2.2-0.1-3.2,0c-4.2,0.1-8,0.6-11.2,1.3c-3.2,0.7-5.9,1.7-7.7,2.3c-1.8,0.7-2.9,1.2-2.9,1.2
						s0.7,0.7,2.1,1.8c1.4,1.1,3.3,2.7,5.7,4.4c1.2,0.9,2.6,1.7,4.1,2.6c1.5,0.9,3,1.8,4.7,2.7c1.7,0.9,3.5,1.7,5.5,2.5
						C576.4,271.9,578.4,272.6,580.6,273.2z"/>
					<path class="st1" d="M618.5,236.9c0.8,2.6,1.5,5,1.9,7.5c0.4,2.5,0.6,4.9,0.7,7.2c0.1,2.3,0.1,4.5,0,6.5c-0.1,2-0.4,4-0.7,5.7
						c-0.6,3.5-1.4,6.3-2,8.3c-0.6,2-1.1,3-1.1,3s-0.8-0.9-2.1-2.5c-0.6-0.8-1.4-1.8-2.2-2.9c-0.8-1.1-1.7-2.5-2.7-3.9
						c-1-1.4-2-3-3.1-4.7c-0.5-0.9-1-1.8-1.5-2.7c-0.2-0.5-0.5-0.9-0.8-1.4c-0.3-0.5-0.5-0.9-0.8-1.4c-1.1-1.9-2.1-4-3-6.2
						c-0.5-1.1-0.9-2.2-1.4-3.4c-0.4-1.2-0.9-2.3-1.3-3.5c-0.8-2.4-1.5-4.8-2.1-7.1c-0.3-1.2-0.5-2.4-0.7-3.5
						c-0.2-1.1-0.5-2.3-0.7-3.4c-0.8-4.4-1.2-8.7-1.4-12.3c-0.2-3.7-0.3-6.6-0.2-8.8c0-2.1,0.2-3.4,0.2-3.4s1.1,0.7,2.9,2.2
						c1.9,1.4,4.3,3.6,7,6.4c1.4,1.4,2.8,3,4.2,4.7c1.4,1.7,2.8,3.7,4.1,5.7c1.3,2.1,2.6,4.2,3.8,6.5
						C616.7,231.9,617.7,234.4,618.5,236.9z"/>
				</g>
				<g>
					<path class="st1" d="M543.6,241.5c4.4,0.3,8.8,0.2,13-0.3c4.1-0.4,7.9-1.1,11.2-1.8c3.3-0.7,6.1-1.5,8-2.1c1.9-0.6,3-1,3-1
						s-0.2-0.2-0.6-0.6c-0.4-0.4-1-1-1.7-1.6c-1.6-1.3-3.9-3-6.8-4.9c-5.8-3.7-14.3-7.4-23.7-8c-2.3-0.2-4.7,0-6.9,0.2
						c-2.2,0.2-4.4,0.6-6.4,1.1c-1,0.2-2,0.5-2.9,0.8c-1,0.3-1.9,0.6-2.8,1c-1.8,0.7-3.4,1.4-4.9,2.1c-3,1.4-5.3,2.8-7,3.9
						c-0.8,0.5-1.4,1-1.9,1.3c-0.4,0.3-0.7,0.5-0.7,0.5s0.9,0.5,2.4,1.4c1.5,0.8,3.8,1.9,6.6,3c1.4,0.5,2.9,1.2,4.5,1.7
						c1.6,0.6,3.4,1.1,5.2,1.5c0.5,0.1,0.9,0.2,1.4,0.3c0.5,0.1,0.9,0.2,1.4,0.4c1,0.2,2,0.4,3,0.6
						C539.2,241.2,541.4,241.4,543.6,241.5z"/>
					<path class="st1" d="M572.8,197.7c2.7,4.6,4.5,9.4,5.7,13.7c1.2,4.4,1.7,8.6,1.9,12.1c0.2,3.5,0.1,6.4-0.1,8.5
						c-0.2,2.1-0.4,3.2-0.4,3.2s-0.2-0.2-0.7-0.5c-0.4-0.3-1-0.9-1.9-1.5c-1.6-1.2-3.9-3.1-6.3-5.5c-5-4.8-11.4-11.5-16.6-20.1
						c-1.3-2.2-2.5-4.3-3.6-6.5c-1.1-2.2-2-4.3-2.9-6.4c-0.4-1.1-0.8-2.1-1.2-3.1c-0.4-1-0.8-2-1.1-3c-0.7-1.9-1.3-3.8-1.8-5.6
						c-1-3.5-1.7-6.5-2.1-8.6c-0.2-1.1-0.3-1.9-0.4-2.4c-0.1-0.6-0.1-0.9-0.1-0.9s0.3,0.1,0.9,0.3c0.6,0.2,1.4,0.6,2.4,1.1
						c2.1,1,5,2.6,8.3,4.7c1.7,1,3.3,2.4,5.1,3.7c1.7,1.4,3.5,2.9,5.3,4.6c0.4,0.4,0.9,0.8,1.3,1.3c0.4,0.5,0.8,0.9,1.3,1.4
						c0.8,0.9,1.7,1.9,2.5,2.9C569.9,193.3,571.4,195.4,572.8,197.7z"/>
				</g>
				<path class="st1" d="M515.9,178.6c2.4,1.2,4.6,2.4,6.7,3.8c1,0.7,2,1.4,2.9,2.1c0.9,0.7,1.8,1.5,2.7,2.3c3.4,3,6.1,6.1,8.3,8.9
					c2.1,2.9,3.6,5.4,4.6,7.2c1,1.8,1.4,2.9,1.4,2.9s-1.2,0-3.2-0.2c-1-0.1-2.2-0.2-3.6-0.4c-1.4-0.2-3-0.3-4.7-0.6
					c-3.4-0.5-7.4-1.5-11.6-2.5c-2.1-0.6-4.3-1.3-6.5-2.1c-0.6-0.2-1.1-0.4-1.7-0.7c-0.6-0.2-1.1-0.4-1.7-0.6
					c-1.1-0.4-2.3-0.9-3.4-1.4c-2.3-1-4.5-2.2-6.5-3.4c-2.1-1.2-4.1-2.4-5.9-3.7c-3.7-2.5-7.1-5.2-9.8-7.5c-2.7-2.3-4.9-4.4-6.5-5.8
					c-1.5-1.5-2.3-2.4-2.3-2.4s1.3-0.3,3.6-0.7c1.1-0.2,2.5-0.4,4.1-0.5c1.6-0.2,3.4-0.2,5.3-0.2c2,0,4.1,0,6.3,0.2
					c1.1,0.1,2.2,0.1,3.4,0.3c1.2,0.2,2.3,0.4,3.5,0.6C506.1,174.9,511.1,176.2,515.9,178.6z"/>
			</g>
			<g>
				<path class="st1" d="M353.1,714.4c1,0,2.1-0.4,2.9-1.1c28-24.3,119.7-41.3,120.6-41.5c99.1-24.6,146.1-87.1,168.1-135.2
					c35.6-77.8,29.2-167.8,4.5-216.4c-43.3-85.1-127.2-133.9-128-134.4c-2.1-1.2-4.9-0.5-6.1,1.7c-1.2,2.1-0.5,4.9,1.7,6.1
					c0.8,0.5,82.5,48.1,124.5,130.7c23.7,46.7,29.8,133.3-4.6,208.6c-21.2,46.3-66.4,106.5-161.8,130.2
					c-3.6,0.7-94.7,17.6-124.6,43.4c-1.9,1.6-2.1,4.4-0.5,6.3C350.6,713.9,351.8,714.4,353.1,714.4z"/>
			</g>
		</g>
	</g>
	<g>
		<g>
			<path id="SVGID_x5F_1_x5F_" class="st2" d="M754.6,442.8c0,194.5-157.6,352.1-352.1,352.1C208,794.9,50.4,637.2,50.4,442.8
				C50.4,248.3,208,90.7,402.5,90.7C597,90.7,754.6,248.3,754.6,442.8z"/>
			<text>			<textPath  xlink:href="#SVGID_x5F_1_x5F_" startOffset="74.414%">
<tspan  class="st0" style="font-family:'SFProText-Heavy'; font-size:95.1684px;">JURIGESTOR</tspan>			</textPath>
</text>
		</g>
		<g>
		</g>
	</g>
	<g>
		<path class="st3" d="M414.4,348.9c0,6.6-5.4,12-12,12s-12-5.4-12-12c0-6.6,5.4-12,12-12S414.4,342.3,414.4,348.9z"/>
		<path class="st3" d="M408.1,363.9c-1.8,0.7-3.6,1-5.6,1s-3.9-0.4-5.6-1c-6,45.7-14.8,113.8-14.8,125.4c0,2,0.1,4.1,0.4,6h40.1
			c0.2-1.9,0.4-3.9,0.4-6C422.9,477.7,414.2,409.6,408.1,363.9z"/>
		<path class="st3" d="M448.2,527.4c-12.7-10.5-24.9-27.6-24.9-27.6h-41.7c0,0-12.2,17.1-24.9,27.6H448.2z"/>
		<rect x="351" y="533" class="st3" width="103.1" height="10.2"/>
		<g>
			<g>
				<g>
					<path class="st3" d="M349.1,467.4c1.8,0,3.3,1.6,3.2,3.4c-1.7,23.2-21.1,41.5-44.8,41.5c-23.7,0-43-18.3-44.8-41.5
						c-0.1-1.8,1.4-3.4,3.2-3.4H349.1z"/>
				</g>
				<path class="st3" d="M274,463.6l33.5-57.6l33.5,57.6h5.7L310,400.4V366c0-1.4-1.1-2.5-2.5-2.5s-2.5,1.1-2.5,2.5v34.5l-36.8,63.2
					H274z"/>
			</g>
			<g>
				<g>
					<path class="st3" d="M539.1,467.4c1.8,0,3.3,1.6,3.2,3.4c-1.7,23.2-21.1,41.5-44.8,41.5c-23.7,0-43-18.3-44.8-41.5
						c-0.1-1.8,1.4-3.4,3.2-3.4H539.1z"/>
				</g>
				<path class="st3" d="M464,463.6l33.5-57.6l33.5,57.6h5.7l-36.8-63.2V366c0-1.4-1.1-2.5-2.5-2.5s-2.5,1.1-2.5,2.5v34.5
					l-36.8,63.2H464z"/>
			</g>
		</g>
		<g>
			<g>
				<path class="st3" d="M290.6,371.1c0,0,0.1,0,0.1,0.1c0.6,0.4,1.3,0.8,2.1,1.2c1.6,0.9,3.7,1.7,6.1,2.5c1.1,0.3,2.3,0.6,3.6,0.8
					v-8.9c-0.4,0-0.8-0.1-1.2-0.1c0.7-1.3,1.2-2.9,1.2-4.5c0-5.2-4.2-9.3-9.3-9.3c-5.2,0-9.3,4.2-9.3,9.3
					C283.9,366.4,286.7,370,290.6,371.1z"/>
				<path class="st3" d="M390.6,338.3c-0.7-0.3-1.3-0.5-2.1-0.8c-0.7-0.2-1.4-0.4-2.1-0.7c-0.7-0.2-1.5-0.4-2.3-0.6
					c-3.1-0.8-6.5-1.1-10.2-1c-0.9,0.1-1.8,0.1-2.8,0.2c-0.9,0.1-1.9,0.3-2.8,0.5c-1.9,0.3-3.8,1-5.7,1.6c-1.2,0.5-1.6,0.6-2.7,1.2
					l-1.5,0.7l-1.3,0.7c-1.8,0.9-3.4,2-5.1,3c-3.3,2.1-6.5,4.4-9.7,6.6c-6.3,4.5-12.5,8.7-18.4,11.8c-4,2.1-7.8,3.6-11.4,4.4v9.7
					c1.6-0.2,3.2-0.5,4.8-0.9c3.4-0.8,6.8-2.1,10.3-3.7c6.9-3.1,13.5-7.4,20-11.6c3.2-2.1,6.4-4.2,9.5-6.1c1.5-0.9,3.1-1.8,4.6-2.6
					l1.1-0.6l1-0.5c0.5-0.3,1.7-0.7,2.2-0.9c2.9-0.9,5.7-1.5,8.4-1.6c2.7,0,5.3,0.2,7.7,0.8c0.6,0.1,1.2,0.3,1.7,0.5
					c0.6,0.2,1.1,0.3,1.6,0.5c0.4,0.2,0.8,0.3,1.2,0.5c0-0.3,0-0.5,0-0.8C386.5,344.9,388.1,341.1,390.6,338.3z"/>
			</g>
			<g>
				<path class="st3" d="M502.4,366.8v8.9c1.3-0.2,2.5-0.5,3.6-0.8c2.5-0.8,4.5-1.6,6.1-2.5c0.8-0.5,1.5-0.9,2.1-1.2
					c0,0,0.1,0,0.1-0.1c3.9-1.1,6.7-4.7,6.7-8.9c0-5.2-4.2-9.3-9.3-9.3c-5.2,0-9.3,4.2-9.3,9.3c0,1.6,0.4,3.2,1.2,4.5
					C503.2,366.7,502.8,366.8,502.4,366.8z"/>
				<path class="st3" d="M477.5,371.2c3.4,1.6,6.9,2.8,10.3,3.7c1.6,0.4,3.2,0.7,4.8,0.9v-9.7c-3.6-0.9-7.5-2.4-11.4-4.4
					c-6-3.1-12.2-7.4-18.4-11.8c-3.1-2.2-6.4-4.5-9.7-6.6c-1.7-1.1-3.4-2.1-5.1-3l-1.3-0.7l-1.5-0.7c-1.1-0.5-1.6-0.7-2.7-1.2
					c-1.9-0.6-3.8-1.3-5.7-1.6c-1-0.2-1.9-0.4-2.8-0.5c-0.9-0.1-1.9-0.1-2.8-0.2c-3.7-0.1-7.1,0.2-10.2,1c-0.8,0.2-1.5,0.4-2.3,0.6
					c-0.7,0.2-1.4,0.4-2.1,0.7c-0.7,0.3-1.4,0.5-2.1,0.8c2.5,2.8,4.1,6.5,4.1,10.6c0,0.3,0,0.5,0,0.8c0.4-0.2,0.8-0.3,1.2-0.5
					c0.5-0.2,1.1-0.3,1.6-0.5c0.6-0.2,1.1-0.4,1.7-0.5c2.4-0.6,5-0.9,7.7-0.8c2.7,0,5.5,0.7,8.4,1.6c0.5,0.2,1.7,0.6,2.2,0.9l1,0.5
					l1.1,0.6c1.5,0.7,3,1.6,4.6,2.6c3.1,1.9,6.2,4,9.5,6.1C463.9,363.8,470.6,368.1,477.5,371.2z"/>
			</g>
		</g>
		<path class="st3" d="M402.5,333c3,0,5.8,0.8,8.2,2.3c0-0.2,0-0.4,0-0.7c0-4.6-3.7-8.2-8.2-8.2c-4.6,0-8.2,3.7-8.2,8.2
			c0,0.2,0,0.4,0,0.7C396.7,333.8,399.5,333,402.5,333z"/>
	</g>
</g>
</svg>
